#!OML:ASF X:\für Bonn\!DataBase\2005_08_12_Daniel\c3d\Daniel.ASF
:FULLY-SPECIFIED
:DEGREES
64
root 3.86111 17.066 -2.80842 -180.385 -69.8077 132.613
lowerback 53.5208 1.70752 2.88135
upperback 13.3862 -1.61696 -10.4043
thorax -6.69853 -1.72533 -11.9949
lowerneck 4.01892 11.0849 -12.5421
upperneck 30.6528 13.1893 3.02124
head 7.94163 4.38893 3.55475
rclavicle 2.38542e-015 -5.32743e-014
rhumerus -38.8006 -0.227944 -90.2328
rradius 43.2206
rwrist -6.6008
rhand -28.4557 21.4438
rfingers 7.12502
rthumb -1.82605 -8.52809
lclavicle 2.38542e-015 -5.32743e-014
lhumerus -16.9034 -17.5977 67.3888
lradius 131.23
lwrist 20.2723
lhand -18.4237 -27.2735
lfingers 7.12502
lthumb 7.86138 2.56036
rfemur 37.4494 6.38575 11.0429
rtibia 22.844
rfoot -17.0112 -6.73494
rtoes -11.6891
lfemur -66.2279 11.814 1.58919
ltibia 33.3029
lfoot -13.4056 20.5709
ltoes -25.6365
65
root 3.87338 17.0642 -2.82166 -180.593 -69.7038 133.057
lowerback 53.4123 1.70975 2.80591
upperback 13.4697 -1.68962 -10.5145
thorax -6.61912 -1.76412 -12.0508
lowerneck 4.17175 11.2072 -12.2279
upperneck 30.7637 13.3511 2.77195
head 7.98665 4.45969 3.42397
rclavicle -3.20043e-014 7.95139e-016
rhumerus -39.2625 -0.756154 -90.5481
rradius 42.4352
rwrist -6.31284
rhand -27.6776 20.871
rfingers 7.12502
rthumb -1.07457 -9.10607
lclavicle -3.20043e-014 7.95139e-016
lhumerus -17.6615 -16.4444 68.6972
lradius 131.778
lwrist 20.1557
lhand -18.27 -27.4988
lfingers 7.12502
lthumb 8.00977 2.32946
rfemur 36.9655 6.31435 11.1137
rtibia 23.2033
rfoot -17.1136 -6.56248
rtoes -11.5298
lfemur -66.8713 12.4974 1.04885
ltibia 35.1549
lfoot -11.208 19.815
ltoes -23.7937
66
root 3.8794 17.0594 -2.83215 -180.351 -69.634 133.051
lowerback 53.2608 1.71305 2.64173
upperback 13.544 -1.80503 -10.6518
thorax -6.55642 -1.82384 -12.0751
lowerneck 4.41238 11.3296 -11.9827
upperneck 30.7654 13.5018 2.51156
head 7.97769 4.5256 3.28978
rclavicle -2.38542e-014 7.87187e-014
rhumerus -39.7239 -1.18976 -90.828
rradius 41.5257
rwrist -5.59566
rhand -26.6487 20.3566
rfingers 7.12502
rthumb -0.0808082 -9.62314
lclavicle -2.38542e-014 7.87187e-014
lhumerus -18.3045 -15.3464 69.9034
lradius 132.273
lwrist 19.9674
lhand -18.0771 -27.4708
lfingers 7.12502
lthumb 8.19597 2.35023
rfemur 36.3898 6.22328 10.9926
rtibia 23.7561
rfoot -17.3402 -6.35049
rtoes -11.409
lfemur -67.9668 13.3348 -0.0351093
ltibia 38.1457
lfoot -8.26882 18.3518
ltoes -22.1158
67
root 3.8804 17.0511 -2.84007 -179.893 -69.6086 132.88
lowerback 53.0568 1.70046 2.43371
upperback 13.5889 -1.94818 -10.7801
thorax -6.52526 -1.8962 -12.0545
lowerneck 4.65347 11.4493 -11.6432
upperneck 30.712 13.6699 2.16844
head 7.96238 4.6078 3.11353
rclavicle -2.70347e-014 -1.43125e-014
rhumerus -40.1874 -1.47815 -91.073
rradius 40.5502
rwrist -4.57165
rhand -25.4515 19.9723
rfingers 7.12502
rthumb 1.07546 -10.0048
lclavicle -2.70347e-014 -1.43125e-014
lhumerus -18.8537 -14.3464 70.9693
lradius 132.72
lwrist 19.7756
lhand -18.0008 -27.2647
lfingers 7.12502
lthumb 8.2696 2.55346
rfemur 35.6803 6.13228 10.8288
rtibia 24.5116
rfoot -17.6875 -6.16911
rtoes -11.1405
lfemur -69.329 14.2845 -1.48664
ltibia 41.8566
lfoot -4.96232 16.2998
ltoes -19.8526
68
root 3.87441 17.039 -2.84506 -179.412 -69.586 132.739
lowerback 52.8033 1.6812 2.25336
upperback 13.6162 -2.0701 -10.889
thorax -6.50202 -1.95582 -12.0339
lowerneck 4.96778 11.5452 -11.3692
upperneck 30.4769 13.7892 1.87957
head 7.8654 4.68283 2.95271
rclavicle 1.11319e-014 -2.54444e-014
rhumerus -40.6221 -1.71069 -91.2577
rradius 39.5128
rwrist -3.27834
rhand -23.9558 19.6742
rfingers 7.12502
rthumb 2.52009 -10.2907
lclavicle 1.11319e-014 -2.54444e-014
lhumerus -19.3029 -13.4923 71.9404
lradius 133.093
lwrist 19.5069
lhand -18.1214 -27.0731
lfingers 7.12502
lthumb 8.15317 2.74962
rfemur 34.8352 6.08649 10.7083
rtibia 25.4809
rfoot -18.1633 -6.01483
rtoes -10.9767
lfemur -70.7719 15.2636 -3.06677
ltibia 46.0426
lfoot -1.75129 13.9189
ltoes -16.7354
69
root 3.86864 17.0202 -2.84829 -178.866 -69.6235 132.622
lowerback 52.4874 1.61537 2.09334
upperback 13.6183 -2.21822 -10.9787
thorax -6.50317 -2.02475 -11.9882
lowerneck 5.27581 11.6356 -11.1944
upperneck 30.2008 13.9006 1.61198
head 7.74872 4.74941 2.81257
rclavicle -2.78299e-014 1.00187e-013
rhumerus -41.0562 -1.92186 -91.3749
rradius 38.4308
rwrist -1.71556
rhand -22.2235 19.4887
rfingers 7.12502
rthumb 4.19291 -10.4498
lclavicle -2.78299e-014 1.00187e-013
lhumerus -19.7363 -12.7318 72.8197
lradius 133.422
lwrist 19.2343
lhand -18.4219 -26.9719
lfingers 7.12502
lthumb 7.86319 2.86182
rfemur 33.7932 5.98465 10.6044
rtibia 26.671
rfoot -18.7483 -5.87019
rtoes -10.7935
lfemur -72.2166 16.1601 -4.65656
ltibia 50.4842
lfoot 0.878763 11.3621
ltoes -16.2994
70
root 3.86004 16.9935 -2.84938 -178.125 -69.6917 132.348
lowerback 52.1282 1.55452 1.91924
upperback 13.6094 -2.35393 -11.0492
thorax -6.50534 -2.08614 -11.9186
lowerneck 5.52182 11.7019 -11.0958
upperneck 30.0366 13.9733 1.422
head 7.67222 4.78747 2.71633
rclavicle -9.93923e-015 -1.59028e-014
rhumerus -41.5037 -2.12103 -91.4234
rradius 37.3237
rwrist -0.000913942
rhand -20.5655 19.6088
rfingers 7.12502
rthumb 5.79386 -10.292
lclavicle -9.93923e-015 -1.59028e-014
lhumerus -20.1165 -12.0664 73.6879
lradius 133.664
lwrist 18.9549
lhand -18.6918 -27
lfingers 7.12502
lthumb 7.60263 2.84337
rfemur 32.6525 5.88956 10.4649
rtibia 28.0066
rfoot -19.4282 -5.75347
rtoes -10.6556
lfemur -73.5739 16.9252 -6.21554
ltibia 55.0527
lfoot 3.49169 8.74127
ltoes -19.0776
71
root 3.84998 16.9586 -2.84891 -177.358 -69.7767 132.06
lowerback 51.7771 1.48048 1.7739
upperback 13.5838 -2.48697 -11.1246
thorax -6.52622 -2.14412 -11.8701
lowerneck 5.67939 11.7648 -10.98
upperneck 29.9909 14.0434 1.30211
head 7.64597 4.82292 2.64996
rclavicle -3.97569e-015 2.22639e-014
rhumerus -42.0083 -2.39501 -91.4054
rradius 36.1742
rwrist 2.01585
rhand -19.022 20.1591
rfingers 7.12502
rthumb 7.28394 -9.69551
lclavicle -3.97569e-015 2.22639e-014
lhumerus -20.4579 -11.5284 74.4638
lradius 133.799
lwrist 18.6469
lhand -19.0897 -27.1888
lfingers 7.12502
lthumb 7.21861 2.66808
rfemur 31.4791 5.77218 10.3132
rtibia 29.3869
rfoot -20.1087 -5.61919
rtoes -10.4449
lfemur -74.8089 17.5344 -7.60389
ltibia 59.6506
lfoot 6.99021 6.17251
ltoes -21.1445
